<?xml version="1.0" encoding="UTF-8"?>
<svg version="1.1" xmlns="http://www.w3.org/2000/svg" width="285" height="301">
<path d="M0 0 C94.05 0 188.1 0 285 0 C285 99.33 285 198.66 285 301 C190.95 301 96.9 301 0 301 C0 201.67 0 102.34 0 0 Z " fill="#CBCBCA" transform="translate(0,0)"/>
<path d="M0 0 C0.78511411 2.7648999 1.1113092 5.17662315 1.0625 8.046875 C1.05476562 8.81 1.04703125 9.573125 1.0390625 10.359375 C1.01327608 11.93750419 0.98723951 13.51562932 0.9609375 15.09375 C0.95320312 15.86203125 0.94546875 16.6303125 0.9375 17.421875 C0.92009766 18.45199707 0.92009766 18.45199707 0.90234375 19.50292969 C1.04031182 23.03077331 1.53579875 26.50369323 2 30 C2.18711108 31.50004986 2.37261095 33.00030142 2.55664062 34.50073242 C3.08826894 38.8069384 3.6221046 43.11286734 4.15673828 47.41870117 C4.38623524 49.26985696 4.61507268 51.12109464 4.84326172 52.97241211 C5.17501094 55.66281737 5.50914976 58.35291677 5.84375 61.04296875 C5.99535583 62.27904121 5.99535583 62.27904121 6.15002441 63.54008484 C6.5439335 66.69227962 6.94875294 69.76810707 7.63476562 72.87231445 C8 75 8 75 7 78 C8.65 78 10.3 78 12 78 C11.484375 78.350625 10.96875 78.70125 10.4375 79.0625 C8.61719831 81.07690982 8.61719831 81.07690982 9.25 84.5625 C9.81719909 87.83962509 9.81719909 87.83962509 11 90 C10.34 90 9.68 90 9 90 C9.2165625 91.13888672 9.2165625 91.13888672 9.4375 92.30078125 C9.623125 93.29464844 9.80875 94.28851563 10 95.3125 C10.185625 96.29863281 10.37125 97.28476563 10.5625 98.30078125 C11 101 11 101 11 104 C23.56514076 104.10754993 36.09434266 104.15993417 48.63525391 103.26782227 C58.23133416 102.69144367 67.18882512 103.50944126 77 104 C77 119.51 77 135.02 77 151 C-17.05 151 -111.1 151 -208 151 C-208 106 -208 106 -207 103 C-159.42245127 102.79361047 -159.42245127 102.79361047 -139 104 C-138.94465088 103.41508789 -138.88930176 102.83017578 -138.83227539 102.22753906 C-138.57882735 99.56804892 -138.32071175 96.90903168 -138.0625 94.25 C-137.97548828 93.32960938 -137.88847656 92.40921875 -137.79882812 91.4609375 C-137.71181641 90.57148438 -137.62480469 89.68203125 -137.53515625 88.765625 C-137.456604 87.94868164 -137.37805176 87.13173828 -137.29711914 86.29003906 C-137.01670988 84.12879099 -136.57555495 82.09982687 -136 80 C-136.66 79.67 -137.32 79.34 -138 79 C-137.34 79 -136.68 79 -136 79 C-135.90203125 77.72253906 -135.8040625 76.44507813 -135.703125 75.12890625 C-134.71776363 62.84207647 -133.42524675 50.60951133 -131.9375 38.375 C-131.84964233 37.64781769 -131.76178467 36.92063538 -131.67126465 36.17141724 C-130.07679858 23.02189936 -130.07679858 23.02189936 -129 18 C-129.66 18 -130.32 18 -131 18 C-131.02735618 16.29175867 -131.04655506 14.58338595 -131.0625 12.875 C-131.07410156 11.92367187 -131.08570313 10.97234375 -131.09765625 9.9921875 C-131 7 -131 7 -130 1 C-120.1 1.66 -110.2 2.32 -100 3 C-100 3.33 -100 3.66 -100 4 C-100.94875 4.165 -101.8975 4.33 -102.875 4.5 C-104.421875 5.2425 -104.421875 5.2425 -106 6 C-107.84554158 11.74168491 -108.53057303 17.51675153 -109.125 23.5 C-109.25455078 24.73363281 -109.25455078 24.73363281 -109.38671875 25.9921875 C-109.59623852 27.99426526 -109.79885044 29.99706397 -110 32 C-80.48175413 31.43756014 -80.48175413 31.43756014 -51 30 C-50.20239258 29.94763184 -49.40478516 29.89526367 -48.58300781 29.84130859 C-33.6906703 29.04002208 -33.6906703 29.04002208 -21 22 C-21.03833994 19.50200568 -21.14468535 17.0521338 -21.3125 14.5625 C-21.34794922 13.86833984 -21.38339844 13.17417969 -21.41992188 12.45898438 C-21.59106073 8.27549558 -21.59106073 8.27549558 -24 5 C-26.71615864 4.62792646 -26.71615864 4.62792646 -29.8828125 4.5859375 C-31.04941406 4.54726562 -32.21601563 4.50859375 -33.41796875 4.46875 C-34.64128906 4.4378125 -35.86460937 4.406875 -37.125 4.375 C-38.35605469 4.33632812 -39.58710938 4.29765625 -40.85546875 4.2578125 C-43.90349376 4.1633001 -46.95150862 4.07774506 -50 4 C-50 3.67 -50 3.34 -50 3 C-48.35185303 2.91697632 -48.35185303 2.91697632 -46.67041016 2.83227539 C-42.55146695 2.62413321 -38.43269517 2.41274903 -34.31396484 2.20043945 C-32.53926966 2.10940052 -30.76453054 2.01921346 -28.98974609 1.92993164 C-19.39419326 1.44664409 -9.56951131 0 0 0 Z " fill="#8C8C8A" transform="translate(208,150)"/>
<path d="M0 0 C1.13480527 3.60993172 1.10015767 6.9842327 1.0625 10.75 C1.05347656 11.92046875 1.04445312 13.0909375 1.03515625 14.296875 C1.01775391 15.63492188 1.01775391 15.63492188 1 17 C-0.62451419 17.33569297 -2.24962917 17.6684796 -3.875 18 C-4.77992188 18.185625 -5.68484375 18.37125 -6.6171875 18.5625 C-9 19 -9 19 -11 19 C-10.82609741 20.04172363 -10.82609741 20.04172363 -10.64868164 21.10449219 C-10.11499834 24.31886058 -9.58872187 27.53440201 -9.0625 30.75 C-8.78889648 32.38775391 -8.78889648 32.38775391 -8.50976562 34.05859375 C-7.44779834 40.58486542 -6.66938174 47.04583178 -6.24389648 53.64550781 C-6.13803314 56.01782938 -6.13803314 56.01782938 -5 58 C-4.76970044 60.37123246 -4.58880058 62.74741943 -4.4375 65.125 C-4.35371094 66.40632813 -4.26992187 67.68765625 -4.18359375 69.0078125 C-4.12300781 69.99523437 -4.06242187 70.98265625 -4 72 C-3.34 72 -2.68 72 -2 72 C0.16100421 81.86089301 1.08963045 91.35493923 1.1875 101.4375 C1.20055176 102.2315625 1.21360352 103.025625 1.22705078 103.84375 C1.2329166 107.75206142 1.21665732 109.67501402 -1 113 C-3.625 113.1875 -3.625 113.1875 -6 113 C-7.10409619 105.99338309 -8.20661835 98.98651973 -9.30810547 91.97949219 C-9.68210178 89.60150701 -10.05644325 87.22357609 -10.43115234 84.84570312 C-10.9732651 81.40509416 -11.51413827 77.96429242 -12.0546875 74.5234375 C-12.22941589 73.41514587 -12.40414429 72.30685425 -12.58416748 71.16497803 C-13.66104424 64.2962541 -14.66097854 57.42663604 -15.51220703 50.52587891 C-15.99404438 48.03083927 -16.74186302 46.19475728 -18 44 C-18.10957031 44.99257812 -18.21914062 45.98515625 -18.33203125 47.0078125 C-19.12802355 53.90755239 -20.0629302 60.60844323 -21.6875 67.375 C-24.05132959 78.03635385 -21.61849633 85.90344657 -18 96 C-17.25992987 98.41662712 -16.52342511 100.83360179 -15.80859375 103.2578125 C-15.01336687 105.36751026 -15.01336687 105.36751026 -12 107 C-12 107.66 -12 108.32 -12 109 C-14.33294775 109.04241723 -16.66702567 109.04092937 -19 109 C-19.33 108.67 -19.66 108.34 -20 108 C-21.32781878 107.79395915 -22.66295895 107.6337041 -24 107.5 C-27.88888889 107.11111111 -27.88888889 107.11111111 -29 106 C-32.63194641 105.80850919 -32.63194641 105.80850919 -36 107 C-36.66 106.67 -37.32 106.34 -38 106 C-39.41882881 105.88252522 -40.84271414 105.82314572 -42.26611328 105.79467773 C-43.14687531 105.77473251 -44.02763733 105.75478729 -44.93508911 105.73423767 C-45.88721283 105.71752518 -46.83933655 105.70081268 -47.8203125 105.68359375 C-48.79410858 105.66281265 -49.76790466 105.64203156 -50.77120972 105.62062073 C-53.88906647 105.55511402 -57.00700903 105.49623503 -60.125 105.4375 C-62.23568604 105.39431585 -64.34636333 105.3507016 -66.45703125 105.30664062 C-71.6379295 105.19943153 -76.81891356 105.09766722 -82 105 C-82 104.34 -82 103.68 -82 103 C-83.65 103.99 -85.3 104.98 -87 106 C-87.33 105.34 -87.66 104.68 -88 104 C-88.33 104.33 -88.66 104.66 -89 105 C-91.96787593 105.10030595 -94.90737172 105.13871785 -97.875 105.125 C-98.70386719 105.12886719 -99.53273438 105.13273437 -100.38671875 105.13671875 C-101.18464844 105.13542969 -101.98257813 105.13414062 -102.8046875 105.1328125 C-103.53671387 105.13168457 -104.26874023 105.13055664 -105.02294922 105.12939453 C-107 105 -107 105 -110 104 C-110.226875 104.598125 -110.45375 105.19625 -110.6875 105.8125 C-112.80003473 109.33339122 -115.87405124 110.57106714 -119.625 112 C-122.03572887 112.83922008 -122.03572887 112.83922008 -123.5625 114.5625 C-125.30722513 116.30722513 -126.62788307 116.49064974 -129 117 C-129.32163576 107.76005773 -128.3190654 98.77066648 -127.1875 89.625 C-127.00367493 88.09477385 -126.82024786 86.56449984 -126.63720703 85.03417969 C-125.67734274 77.08391667 -124.6048756 69.16338484 -123.375 61.25 C-121.31781586 47.93905212 -120.75476905 34.43543114 -120 21 C-122.31 21 -124.62 21 -127 21 C-127.66 22.32 -128.32 23.64 -129 25 C-129 22.69 -129 20.38 -129 18 C-129.66 18 -130.32 18 -131 18 C-131.02735618 16.29175867 -131.04655506 14.58338595 -131.0625 12.875 C-131.07410156 11.92367187 -131.08570313 10.97234375 -131.09765625 9.9921875 C-131 7 -131 7 -130 1 C-120.1 1.66 -110.2 2.32 -100 3 C-100 3.33 -100 3.66 -100 4 C-100.94875 4.165 -101.8975 4.33 -102.875 4.5 C-104.421875 5.2425 -104.421875 5.2425 -106 6 C-107.84554158 11.74168491 -108.53057303 17.51675153 -109.125 23.5 C-109.21136719 24.32242188 -109.29773438 25.14484375 -109.38671875 25.9921875 C-109.59623852 27.99426526 -109.79885044 29.99706397 -110 32 C-80.48175413 31.43756014 -80.48175413 31.43756014 -51 30 C-50.20239258 29.94763184 -49.40478516 29.89526367 -48.58300781 29.84130859 C-33.6906703 29.04002208 -33.6906703 29.04002208 -21 22 C-21.03833994 19.50200568 -21.14468535 17.0521338 -21.3125 14.5625 C-21.34794922 13.86833984 -21.38339844 13.17417969 -21.41992188 12.45898438 C-21.59106073 8.27549558 -21.59106073 8.27549558 -24 5 C-26.71615864 4.62792646 -26.71615864 4.62792646 -29.8828125 4.5859375 C-31.04941406 4.54726562 -32.21601563 4.50859375 -33.41796875 4.46875 C-34.64128906 4.4378125 -35.86460937 4.406875 -37.125 4.375 C-38.35605469 4.33632812 -39.58710938 4.29765625 -40.85546875 4.2578125 C-43.90349376 4.1633001 -46.95150862 4.07774506 -50 4 C-50 3.67 -50 3.34 -50 3 C-48.35185303 2.91697632 -48.35185303 2.91697632 -46.67041016 2.83227539 C-42.55146695 2.62413321 -38.43269517 2.41274903 -34.31396484 2.20043945 C-32.53926966 2.10940052 -30.76453054 2.01921346 -28.98974609 1.92993164 C-19.39419326 1.44664409 -9.56951131 0 0 0 Z " fill="#807F7E" transform="translate(208,150)"/>
<path d="M0 0 C0.87890625 2.109375 0.87890625 2.109375 1.5625 4.75 C2.27344995 7.43313316 2.96792611 9.9267048 4.08203125 12.47265625 C5.13574931 15.37374385 5.20052337 17.61202061 5.125 20.6875 C5.10695312 21.64011719 5.08890625 22.59273437 5.0703125 23.57421875 C5.04710937 24.37472656 5.02390625 25.17523438 5 26 C5 27.81297886 5.05911704 29.62571861 5.125 31.4375 C5.07642275 36.75185067 4.786534 41.95710175 3 47 C-2.50601486 52.01659132 -9.81669414 52.28352237 -17 53 C-17.88623047 53.09023437 -18.77246094 53.18046875 -19.68554688 53.2734375 C-42.02964934 55.45911309 -64.22500507 55.5870534 -86.625 54.1875 C-87.81585205 54.11756836 -89.0067041 54.04763672 -90.23364258 53.97558594 C-107.23955429 52.76044571 -107.23955429 52.76044571 -112 48 C-112.763125 47.505 -113.52625 47.01 -114.3125 46.5 C-121.56459097 39.75386887 -124.39415632 28.80627504 -125.25 19.19140625 C-125.45116201 10.73002915 -125.45116201 10.73002915 -123 7 C-112.86978264 -2.66975293 -95.81297913 -1.64962966 -82.625 -2.1875 C-80.83592624 -2.2677344 -79.04686381 -2.34822179 -77.2578125 -2.42895508 C-15.36689269 -5.12229756 -15.36689269 -5.12229756 0 0 Z " fill="#B8B7B6" transform="translate(198,78)"/>
<path d="M0 0 C1.53950033 6.20445575 2.42767419 12.25923276 2.9375 18.625 C3.63636149 26.60951057 4.51859567 34.5531436 5.5625 42.5 C5.68939209 43.47275879 5.81628418 44.44551758 5.94702148 45.44775391 C6.61425578 50.55794258 6.61425578 50.55794258 7.60522461 55.61132812 C8 58 8 58 7 61 C8.65 61 10.3 61 12 61 C11.484375 61.350625 10.96875 61.70125 10.4375 62.0625 C8.61719831 64.07690982 8.61719831 64.07690982 9.25 67.5625 C9.81719909 70.83962509 9.81719909 70.83962509 11 73 C10.34 73 9.68 73 9 73 C9.144375 73.75925781 9.28875 74.51851563 9.4375 75.30078125 C9.623125 76.29464844 9.80875 77.28851563 10 78.3125 C10.185625 79.29863281 10.37125 80.28476563 10.5625 81.30078125 C11 84 11 84 11 87 C23.56514076 87.10754993 36.09434266 87.15993417 48.63525391 86.26782227 C58.23133416 85.69144367 67.18882512 86.50944126 77 87 C77 102.51 77 118.02 77 134 C54.23 134 31.46 134 8 134 C7.34 125.75 6.68 117.5 6 109 C4.56572331 103.34928769 4.56572331 103.34928769 2.96289062 97.74560547 C0.93367502 89.85203909 0.48300398 81.66069806 -0.25 73.5625 C-0.42332459 71.75184223 -0.5977971 69.94129397 -0.7734375 68.13085938 C-1.19549166 63.75505155 -1.60213892 59.37807103 -2 55 C-2.66 55 -3.32 55 -4 55 C-4.19916016 53.51886719 -4.19916016 53.51886719 -4.40234375 52.0078125 C-4.57894531 50.72648437 -4.75554687 49.44515625 -4.9375 48.125 C-5.19853516 46.21074219 -5.19853516 46.21074219 -5.46484375 44.2578125 C-5.81433227 41.12440546 -5.81433227 41.12440546 -7 39 C-7.27932446 37.1736056 -7.51112492 35.33983394 -7.71875 33.50390625 C-7.84636719 32.38693359 -7.97398437 31.26996094 -8.10546875 30.11914062 C-8.23566406 28.94544922 -8.36585938 27.77175781 -8.5 26.5625 C-8.63019531 25.42361328 -8.76039063 24.28472656 -8.89453125 23.11132812 C-9.68943854 16.08161766 -10.39352939 9.04843711 -11 2 C-9.35416667 1.66666667 -7.70833333 1.33333333 -6.0625 1 C-5.14597656 0.814375 -4.22945312 0.62875 -3.28515625 0.4375 C-1 0 -1 0 0 0 Z " fill="#A7A5A2" transform="translate(208,167)"/>
<path d="M0 0 C0.85896378 -0.00428513 1.71792755 -0.00857025 2.60292053 -0.01298523 C4.41064578 -0.01870085 6.21839401 -0.01924933 8.02612305 -0.01489258 C10.77367815 -0.01173195 13.52015573 -0.03522841 16.26757812 -0.06054688 C18.03255074 -0.06282028 19.79752622 -0.06352317 21.5625 -0.0625 C22.37420151 -0.07170975 23.18590302 -0.08091949 24.02220154 -0.09040833 C31.79319676 -0.02816307 37.74458425 2.48322793 44.47265625 6.36328125 C48.19578985 8.45010022 51.70191121 10.18030962 55.84765625 11.30078125 C55.84765625 11.96078125 55.84765625 12.62078125 55.84765625 13.30078125 C57.39453125 13.73390625 57.39453125 13.73390625 58.97265625 14.17578125 C62.29773622 15.12386923 65.57517078 16.18334719 68.84765625 17.30078125 C69.50765625 16.64078125 70.16765625 15.98078125 70.84765625 15.30078125 C69.85765625 14.31078125 68.86765625 13.32078125 67.84765625 12.30078125 C73.59765625 14.17578125 73.59765625 14.17578125 75.84765625 15.30078125 C75.84765625 15.96078125 75.84765625 16.62078125 75.84765625 17.30078125 C77.82765625 17.63078125 79.80765625 17.96078125 81.84765625 18.30078125 C81.84765625 18.96078125 81.84765625 19.62078125 81.84765625 20.30078125 C84.71490311 19.72733188 85.70910775 19.43932975 87.84765625 17.30078125 C88.83765625 17.30078125 89.82765625 17.30078125 90.84765625 17.30078125 C91.17765625 15.98078125 91.50765625 14.66078125 91.84765625 13.30078125 C92.17765625 13.30078125 92.50765625 13.30078125 92.84765625 13.30078125 C93.17765625 17.26078125 93.50765625 21.22078125 93.84765625 25.30078125 C49.95765625 25.30078125 6.06765625 25.30078125 -39.15234375 25.30078125 C-39.15234375 24.64078125 -39.15234375 23.98078125 -39.15234375 23.30078125 C-37.17234375 22.64078125 -35.19234375 21.98078125 -33.15234375 21.30078125 C-33.15234375 20.31078125 -33.15234375 19.32078125 -33.15234375 18.30078125 C-30.51234375 18.30078125 -27.87234375 18.30078125 -25.15234375 18.30078125 C-25.15234375 16.98078125 -25.15234375 15.66078125 -25.15234375 14.30078125 C-26.89714572 13.88263043 -28.64856932 13.49204143 -30.40234375 13.11328125 C-31.376875 12.89285156 -32.35140625 12.67242187 -33.35546875 12.4453125 C-36.1847082 12.04940687 -36.1847082 12.04940687 -38.453125 13.59375 C-40.32533188 15.24029278 -40.32533188 15.24029278 -41.08984375 17.80078125 C-42.45562282 21.01437907 -44.1605483 21.64881073 -47.15234375 23.30078125 C-46.84387141 20.36280683 -46.53074152 17.42545843 -46.21484375 14.48828125 C-46.12783203 13.65490234 -46.04082031 12.82152344 -45.95117188 11.96289062 C-45.86416016 11.16044922 -45.77714844 10.35800781 -45.6875 9.53125 C-45.60894775 8.79285889 -45.53039551 8.05446777 -45.44946289 7.29370117 C-45.15234375 5.30078125 -45.15234375 5.30078125 -44.15234375 2.30078125 C-39.24728677 1.50331392 -34.57548896 1.16555429 -29.58984375 1.17578125 C-28.33042969 1.17320312 -27.07101563 1.170625 -25.7734375 1.16796875 C-22.15234375 1.30078125 -22.15234375 1.30078125 -19.125 1.93359375 C-16.09058387 2.51417893 -16.09058387 2.51417893 -13.03857422 1.3425293 C-8.68578315 0.02818374 -4.5202613 -0.00506289 0 0 Z " fill="#9F9E9C" transform="translate(121.15234375,275.69921875)"/>
<path d="M0 0 C0.91755066 -0.00309677 1.83510132 -0.00619354 2.78045654 -0.00938416 C3.76596497 -0.00741531 4.75147339 -0.00544647 5.7668457 -0.00341797 C6.8006134 -0.0048732 7.8343811 -0.00632843 8.8994751 -0.00782776 C12.24722971 -0.01006871 15.59488256 -0.00381944 18.94262695 0.00439453 C20.07306427 0.00627777 21.20350159 0.00816101 22.36819458 0.01010132 C48.61368666 0.06176429 48.61368666 0.06176429 61.19262695 0.44189453 C62.72246216 0.47549072 62.72246216 0.47549072 64.28320312 0.50976562 C65.64409058 0.56318115 65.64409058 0.56318115 67.0324707 0.61767578 C68.16543579 0.6569519 68.16543579 0.6569519 69.32128906 0.69702148 C71.81506872 1.25458793 72.72397143 2.10554771 74.25512695 4.12939453 C74.71388507 6.70773127 74.99181603 9.03606466 75.13012695 11.62939453 C75.18942383 12.30615234 75.2487207 12.98291016 75.30981445 13.68017578 C75.61957221 18.58790017 75.61957221 18.58790017 74.0168457 20.96923828 C65.05670103 26.86982136 54.65566323 27.36339076 44.25512695 28.12939453 C43.51020996 28.18724121 42.76529297 28.24508789 41.99780273 28.3046875 C23.13718453 29.69095322 4.15297275 29.22444676 -14.74487305 29.12939453 C-14.89730732 16.34055021 -14.89730732 16.34055021 -13.93237305 10.62939453 C-13.78155273 9.67033203 -13.63073242 8.71126953 -13.4753418 7.72314453 C-12.66162034 4.83378064 -11.88027472 3.24080293 -9.74487305 1.12939453 C-6.46371438 0.27885931 -3.37996793 0.00336674 0 0 Z " fill="#B9B8B5" transform="translate(112.744873046875,152.87060546875)"/>
<path d="M0 0 C1.13480527 3.60993172 1.10015767 6.9842327 1.0625 10.75 C1.05347656 11.92046875 1.04445312 13.0909375 1.03515625 14.296875 C1.02355469 15.18890625 1.01195312 16.0809375 1 17 C-0.62451419 17.33569297 -2.24962917 17.6684796 -3.875 18 C-4.77992188 18.185625 -5.68484375 18.37125 -6.6171875 18.5625 C-9 19 -9 19 -11 19 C-10.82609741 20.04172363 -10.82609741 20.04172363 -10.64868164 21.10449219 C-10.11499834 24.31886058 -9.58872187 27.53440201 -9.0625 30.75 C-8.78889648 32.38775391 -8.78889648 32.38775391 -8.50976562 34.05859375 C-7.44779834 40.58486542 -6.66938174 47.04583178 -6.24389648 53.64550781 C-6.13803314 56.01782938 -6.13803314 56.01782938 -5 58 C-4.76970044 60.37123246 -4.58880058 62.74741943 -4.4375 65.125 C-4.35371094 66.40632813 -4.26992187 67.68765625 -4.18359375 69.0078125 C-4.12300781 69.99523437 -4.06242187 70.98265625 -4 72 C-3.34 72 -2.68 72 -2 72 C0.16100421 81.86089301 1.08963045 91.35493923 1.1875 101.4375 C1.20055176 102.2315625 1.21360352 103.025625 1.22705078 103.84375 C1.2329166 107.75206142 1.21665732 109.67501402 -1 113 C-3.625 113.1875 -3.625 113.1875 -6 113 C-8.35160907 98.03707705 -10.69956674 83.07358557 -13.04296875 68.109375 C-13.59680836 64.57278282 -14.15114332 61.03627079 -14.70703125 57.5 C-15.22392991 54.20872689 -15.73837927 50.91709723 -16.25 47.625 C-16.47163818 46.2021167 -16.47163818 46.2021167 -16.69775391 44.75048828 C-17.54852231 39.20378384 -18.32167224 33.64932907 -19.0546875 28.0859375 C-19.14435791 27.41156647 -19.23402832 26.73719543 -19.32641602 26.04238892 C-19.7642077 22.74901498 -20.19326956 19.45529756 -20.60644531 16.15869141 C-20.75952148 14.99257324 -20.91259766 13.82645508 -21.0703125 12.625 C-21.20195801 11.58601562 -21.33360352 10.54703125 -21.46923828 9.4765625 C-21.80029217 6.83755538 -21.80029217 6.83755538 -24 5 C-26.71615864 4.62792646 -26.71615864 4.62792646 -29.8828125 4.5859375 C-31.04941406 4.54726562 -32.21601563 4.50859375 -33.41796875 4.46875 C-34.64128906 4.4378125 -35.86460937 4.406875 -37.125 4.375 C-38.35605469 4.33632812 -39.58710938 4.29765625 -40.85546875 4.2578125 C-43.90349376 4.1633001 -46.95150862 4.07774506 -50 4 C-50 3.67 -50 3.34 -50 3 C-48.35185303 2.91697632 -48.35185303 2.91697632 -46.67041016 2.83227539 C-42.55146695 2.62413321 -38.43269517 2.41274903 -34.31396484 2.20043945 C-32.53926966 2.10940052 -30.76453054 2.01921346 -28.98974609 1.92993164 C-19.39419326 1.44664409 -9.56951131 0 0 0 Z " fill="#635F5C" transform="translate(208,150)"/>
<path d="M0 0 C9.9 0.66 19.8 1.32 30 2 C30 2.33 30 2.66 30 3 C29.05125 3.165 28.1025 3.33 27.125 3.5 C25.578125 4.2425 25.578125 4.2425 24 5 C22.0653808 11.05721084 21.276714 17.29998941 20.4140625 23.5859375 C20.27223038 24.59262985 20.13039825 25.5993222 19.98426819 26.63652039 C19.68288063 28.7781882 19.38334938 30.92011796 19.08554077 33.06228638 C18.31404805 38.61170701 17.52968266 44.15930787 16.74609375 49.70703125 C16.59374771 50.78792526 16.44140167 51.86881927 16.28443909 52.98246765 C15.14832167 61.01953797 13.94993899 69.04420535 12.6875 77.0625 C11.27862253 86.02383672 10.03469404 94.98727037 9 104 C13.455 103.505 13.455 103.505 18 103 C18.0625 105.25 18.0625 105.25 17 108 C14.80235287 109.24955682 12.59768155 110.13505533 10.2265625 111.0078125 C7.95278536 111.85968186 7.95278536 111.85968186 6.4609375 113.5546875 C4.69990103 115.29688936 3.38178616 115.48879033 1 116 C0.67836424 106.76005773 1.6809346 97.77066648 2.8125 88.625 C2.99632507 87.09477385 3.17975214 85.56449984 3.36279297 84.03417969 C4.32265726 76.08391667 5.3951244 68.16338484 6.625 60.25 C8.68218414 46.93905212 9.24523095 33.43543114 10 20 C7.69 20 5.38 20 3 20 C2.34 21.32 1.68 22.64 1 24 C1 21.69 1 19.38 1 17 C0.34 17 -0.32 17 -1 17 C-1.02735618 15.29175867 -1.04655506 13.58338595 -1.0625 11.875 C-1.07410156 10.92367187 -1.08570312 9.97234375 -1.09765625 8.9921875 C-1 6 -1 6 0 0 Z " fill="#605C58" transform="translate(78,151)"/>
<path d="M0 0 C5.23007853 15.69023558 -2.22265872 41.16471522 -4.4375 57.25 C-4.58848145 58.35214844 -4.73946289 59.45429688 -4.89501953 60.58984375 C-6.47133294 72.03044417 -8.17736915 83.40556925 -10.39038086 94.74072266 C-11.15648825 98.83665121 -11.67369561 102.91625786 -12.0625 107.0625 C-12.21603365 108.56134346 -12.37100934 110.06003983 -12.52734375 111.55859375 C-12.6032373 112.29190918 -12.67913086 113.02522461 -12.75732422 113.78076172 C-13.38652378 119.53470939 -14.20516961 125.26707439 -15 131 C-17.31 131 -19.62 131 -22 131 C-21.8837503 128.56181549 -21.75710508 126.12483879 -21.625 123.6875 C-21.5940625 123.01654297 -21.563125 122.34558594 -21.53125 121.65429688 C-21.30636117 117.66252015 -20.82036474 113.83552826 -20.0546875 109.91015625 C-18.71721872 102.90636313 -18.12900444 95.84579388 -17.5 88.75 C-16.78803683 80.84016737 -16.0278219 72.96079608 -14.94140625 65.09375 C-14.18953743 59.63822989 -13.65393376 54.25058473 -13.4375 48.75 C-13.12654162 41.37962487 -13.12654162 41.37962487 -12 38 C-11.52474735 34.5549064 -11.24771726 31.08847095 -10.9375 27.625 C-10.845896 26.63653076 -10.75429199 25.64806152 -10.65991211 24.62963867 C-10.09255844 18.15248341 -9.86982013 11.86062938 -10.22265625 5.36328125 C-10 3 -10 3 -8.7265625 1.1796875 C-5.95943433 -0.71097473 -3.24307397 -0.18357022 0 0 Z " fill="#A9A39D" transform="translate(88,170)"/>
<path d="M0 0 C2.97 0 5.94 0 9 0 C10.83267786 11.37482056 12.38107096 22.71064561 13.35302734 34.1940918 C13.42473145 35.027229 13.49643555 35.86036621 13.5703125 36.71875 C13.62977051 37.45029297 13.68922852 38.18183594 13.75048828 38.93554688 C14.00287491 41.02378691 14.48147455 42.963908 15 45 C17.42108023 69.86837965 17.42108023 69.86837965 14 75 C13.34 75 12.68 75 12 75 C10.84986807 72.69973614 10.70767601 70.98752064 10.46484375 68.4296875 C10.37783203 67.53378906 10.29082031 66.63789063 10.20117188 65.71484375 C10.11416016 64.77769531 10.02714844 63.84054688 9.9375 62.875 C9.84662109 61.93011719 9.75574219 60.98523438 9.66210938 60.01171875 C9.43785901 57.67479389 9.21730943 55.33757884 9 53 C8.34 53 7.68 53 7 53 C6.80083984 51.51886719 6.80083984 51.51886719 6.59765625 50.0078125 C6.42105469 48.72648437 6.24445313 47.44515625 6.0625 46.125 C5.80146484 44.21074219 5.80146484 44.21074219 5.53515625 42.2578125 C5.18566773 39.12440546 5.18566773 39.12440546 4 37 C3.72067554 35.1736056 3.48887508 33.33983394 3.28125 31.50390625 C3.15363281 30.38693359 3.02601563 29.26996094 2.89453125 28.11914062 C2.76433594 26.94544922 2.63414062 25.77175781 2.5 24.5625 C2.36980469 23.42361328 2.23960937 22.28472656 2.10546875 21.11132812 C1.31056146 14.08161766 0.60647061 7.04843711 0 0 Z " fill="#B3ADA7" transform="translate(197,169)"/>
<path d="M0 0 C3.10090097 4.65135146 3.55694252 8.66153431 4.25 14.125 C5.17416676 21.21027853 6.18092159 28.27654875 7.30859375 35.33203125 C7.4219809 36.04341248 7.53536804 36.7547937 7.65219116 37.48773193 C8.21869849 41.03295193 8.79245273 44.57685049 9.37402344 48.11962891 C9.58676398 49.44300566 9.79933649 50.76640945 10.01171875 52.08984375 C10.20209717 53.25378662 10.39247559 54.41772949 10.58862305 55.61694336 C11.01354963 59.11142862 11.07079766 62.48334308 11 66 C6.80066382 64.80772052 3.06591204 63.64779763 0.6171875 59.86230469 C-0.43072332 57.22705651 -1.24773515 54.60911995 -2 51.875 C-2.28488281 50.97523438 -2.56976563 50.07546875 -2.86328125 49.1484375 C-5.91836003 39.07102123 -6.40326892 30.70479801 -4.125 20.4375 C-3.74920544 18.66608219 -3.37677534 16.8939471 -3.0078125 15.12109375 C-2.83024414 14.27144043 -2.65267578 13.42178711 -2.46972656 12.54638672 C-2.00042434 10.00230035 -1.68920399 7.48344032 -1.4296875 4.91015625 C-1 1 -1 1 0 0 Z " fill="#9C9B98" transform="translate(190,193)"/>
<path d="M0 0 C0.33 0 0.66 0 1 0 C1.06058594 0.84304687 1.12117187 1.68609375 1.18359375 2.5546875 C1.26738281 3.65039062 1.35117188 4.74609375 1.4375 5.875 C1.51871094 6.96554688 1.59992188 8.05609375 1.68359375 9.1796875 C1.83001703 11.94728971 1.83001703 11.94728971 3 14 C3.23029956 16.37123246 3.41119942 18.74741943 3.5625 21.125 C3.64628906 22.40632813 3.73007813 23.68765625 3.81640625 25.0078125 C3.87699219 25.99523437 3.93757812 26.98265625 4 28 C4.66 28 5.32 28 6 28 C8.16100421 37.86089301 9.08963045 47.35493923 9.1875 57.4375 C9.20707764 58.62859375 9.20707764 58.62859375 9.22705078 59.84375 C9.2329166 63.75206142 9.21665732 65.67501402 7 69 C4.375 69.1875 4.375 69.1875 2 69 C0.83121256 61.81182798 -0.32516664 54.62173927 -1.47290039 47.43017578 C-1.86489325 44.98342617 -2.25973484 42.5371312 -2.6574707 40.09130859 C-3.22835081 36.57765198 -3.7889992 33.06249302 -4.34765625 29.546875 C-4.52780777 28.4519574 -4.70795929 27.35703979 -4.89356995 26.22894287 C-5.05381149 25.20818665 -5.21405304 24.18743042 -5.37915039 23.13574219 C-5.52349014 22.23861511 -5.6678299 21.34148804 -5.81654358 20.41717529 C-6.21969402 15.10536734 -3.89341294 10.34011941 -1 6 C-0.60986284 4.0103005 -0.26797351 2.00980131 0 0 Z " fill="#706A65" transform="translate(200,194)"/>
<path d="M0 0 C-0.13277344 0.66 -0.26554687 1.32 -0.40234375 2 C-1.97791886 10.83242104 -2.36967386 19.54801377 -2.57006836 28.5078125 C-2.72856842 34.0539675 -3.36604336 38.66651889 -5 44 C-5.4785859 47.21805353 -5.77299803 50.44759529 -6.0625 53.6875 C-6.21741886 55.35831916 -6.3748803 57.02890496 -6.53515625 58.69921875 C-6.600979 59.42971436 -6.66680176 60.16020996 -6.73461914 60.9128418 C-7.0005586 63.00439326 -7.48757888 64.957261 -8 67 C-8.17587852 69.3729642 -8.31794464 71.74853227 -8.4375 74.125 C-8.78157447 80.21950274 -9.56165314 86.06507363 -11 92 C-12.485 92.495 -12.485 92.495 -14 93 C-15.12749535 87.61307776 -15.12749535 87.61307776 -14.55859375 84.87744141 C-13.77009921 80.81572961 -13.66984582 76.7766076 -13.5 72.6484375 C-13.45939453 71.75258942 -13.41878906 70.85674133 -13.37695312 69.93374634 C-13.20374643 66.11233194 -13.03937862 62.29055293 -12.875 58.46875 C-12.75350265 55.6743109 -12.62692168 52.88013464 -12.5 50.0859375 C-12.46455078 49.22028168 -12.42910156 48.35462585 -12.39257812 47.46273804 C-12.3374707 46.25600937 -12.3374707 46.25600937 -12.28125 45.02490234 C-12.25095703 44.31828461 -12.22066406 43.61166687 -12.18945312 42.88363647 C-12 41 -12 41 -11 38 C-10.52474735 34.5549064 -10.24771726 31.08847095 -9.9375 27.625 C-9.845896 26.63653076 -9.75429199 25.64806152 -9.65991211 24.62963867 C-9.09255844 18.15248341 -8.86982013 11.86062938 -9.22265625 5.36328125 C-9 3 -9 3 -7.87109375 1.16796875 C-5.2218315 -0.4857461 -3.05463845 -0.20364256 0 0 Z " fill="#B7B2AB" transform="translate(87,170)"/>
<path d="M0 0 C0.33 0 0.66 0 1 0 C1.13299681 7.20448642 0.74699965 14.2672448 0.0625 21.4375 C-0.06801758 22.90606445 -0.06801758 22.90606445 -0.20117188 24.40429688 C-0.86964286 31.60892857 -0.86964286 31.60892857 -2 35 C-2.15931602 37.41924323 -2.27826505 39.82827122 -2.375 42.25 C-2.71282078 49.09935324 -3.43259852 55.83386775 -4.375 62.625 C-5.87206729 73.42032358 -6.94424649 84.237148 -7.90966797 95.09033203 C-8.614959 102.80451522 -9.64409671 110.37516834 -11 118 C-11.35511959 120.33104781 -11.68140417 122.66363056 -12 125 C-12.33 125 -12.66 125 -13 125 C-13.11639555 117.65932033 -12.66489831 110.43922624 -12.0625 103.125 C-11.97548828 101.99835938 -11.88847656 100.87171875 -11.79882812 99.7109375 C-11.71181641 98.63328125 -11.62480469 97.555625 -11.53515625 96.4453125 C-11.456604 95.47094238 -11.37805176 94.49657227 -11.29711914 93.49267578 C-11 91 -11 91 -10 88 C-9.80952575 86.44273722 -9.65924577 84.88035944 -9.53515625 83.31640625 C-9.4582959 82.39359863 -9.38143555 81.47079102 -9.30224609 80.52001953 C-9.22312988 79.54403809 -9.14401367 78.56805664 -9.0625 77.5625 C-8.38584581 69.62248701 -7.55144619 61.82324996 -6 54 C-6.66 53.67 -7.32 53.34 -8 53 C-7.34 53 -6.68 53 -6 53 C-5.93268677 52.15127319 -5.93268677 52.15127319 -5.86401367 51.28540039 C-4.9261126 39.62295683 -3.83321841 27.99227801 -2.4375 16.375 C-2.31076904 15.31547119 -2.18403809 14.25594238 -2.0534668 13.16430664 C-1.51000436 8.73302514 -0.91773427 4.37160979 0 0 Z " fill="#979491" transform="translate(78,176)"/>
<path d="M0 0 C0.66 0 1.32 0 2 0 C1.71221756 1.52157311 1.41953999 3.04222053 1.125 4.5625 C0.96257813 5.40941406 0.80015625 6.25632812 0.6328125 7.12890625 C0 10 0 10 -1.00390625 13.2734375 C-2.14565823 17.54493312 -2.64978924 21.67125751 -3.0625 26.0625 C-3.14411377 26.89668457 -3.22572754 27.73086914 -3.30981445 28.59033203 C-3.54727042 31.05958999 -3.77389094 33.52968182 -4 36 C-4.12632813 37.28519531 -4.25265625 38.57039063 -4.3828125 39.89453125 C-5.73211166 55.30767938 -4.13488996 68.63553792 4 82 C4 82.66 4 83.32 4 84 C5.32 84.33 6.64 84.66 8 85 C8.33 86.32 8.66 87.64 9 89 C1.52864625 85.26432312 -2.40689174 79.27908658 -5.1875 71.59765625 C-7.77865549 63.31343318 -8.30073267 55.64606425 -8 47 C-7.97099609 45.88044922 -7.97099609 45.88044922 -7.94140625 44.73828125 C-7.51669228 29.0238642 -4.90254212 14.98137237 0 0 Z " fill="#E2E2E1" transform="translate(60,57)"/>
<path d="M0 0 C0.33 0 0.66 0 1 0 C1.33 4.29 1.66 8.58 2 13 C3.65 13 5.3 13 7 13 C6.67 13.66 6.34 14.32 6 15 C4.02 15 2.04 15 0 15 C-0.66 21.6 -1.32 28.2 -2 35 C2.11295988 33.45624577 2.11295988 33.45624577 3.25 30.375 C3.4975 29.59125 3.745 28.8075 4 28 C2.35 28 0.7 28 -1 28 C-1 27.67 -1 27.34 -1 27 C2.02734375 26.26757812 2.02734375 26.26757812 5.0546875 25.53515625 C7.0585657 25.05153008 7.0585657 25.05153008 9 24 C11.3828125 24.55859375 11.3828125 24.55859375 14.125 25.4375 C15.03507812 25.72496094 15.94515625 26.01242187 16.8828125 26.30859375 C17.93082031 26.65083984 17.93082031 26.65083984 19 27 C19 28.32 19 29.64 19 31 C16.36 31 13.72 31 11 31 C11 31.99 11 32.98 11 34 C8 36 8 36 5 36 C5 36.66 5 37.32 5 38 C2.03 38 -0.94 38 -4 38 C-4.48075066 25.15327405 -2.20794027 12.61344599 0 0 Z " fill="#918F8B" transform="translate(77,263)"/>
<path d="M0 0 C0.66 0 1.32 0 2 0 C7.97503955 16.7069067 11.25357076 31.89601414 11.375 49.6875 C11.39602783 51.64755981 11.39602783 51.64755981 11.41748047 53.6472168 C11.35798599 65.72078281 10.30690138 77.61665419 2 87 C0.69538172 88.03718316 -0.6317042 89.04839904 -2 90 C-2.33 89.01 -2.66 88.02 -3 87 C-2.443125 86.54625 -1.88625 86.0925 -1.3125 85.625 C6.32586135 76.95442765 8.37107131 66.32618378 8.25 55.125 C8.24323242 54.20879883 8.23646484 53.29259766 8.22949219 52.34863281 C8.00748956 37.41250274 5.67058214 23.44163464 2 9 C1.31217208 6.00412729 0.65523973 3.00318208 0 0 Z " fill="#E6E6E5" transform="translate(223,53)"/>
<path d="M0 0 C0.66 0.33 1.32 0.66 2 1 C0.92965746 25.89581269 -2.41079301 50.3617654 -6 75 C-6.33 75 -6.66 75 -7 75 C-6.90584607 70.71293428 -6.79962169 66.42638129 -6.68261719 62.13989258 C-6.64453573 60.68424482 -6.609648 59.22850963 -6.578125 57.77270508 C-6.53201745 55.66976852 -6.47410453 53.56742325 -6.4140625 51.46484375 C-6.3826416 50.202771 -6.3512207 48.94069824 -6.31884766 47.64038086 C-5.98848094 43.86848339 -5.06623742 40.62321572 -4 37 C-3.69197876 34.23043747 -3.69197876 34.23043747 -3.69140625 31.5234375 C-3.65648071 30.03070313 -3.65648071 30.03070313 -3.62084961 28.5078125 C-3.60159424 27.47398437 -3.58233887 26.44015625 -3.5625 25.375 C-3.31124908 16.54168774 -2.63425397 8.48262915 0 0 Z " fill="#938E88" transform="translate(87,170)"/>
<path d="M0 0 C0.33 0 0.66 0 1 0 C1.36926606 5.53899083 1.36926606 5.53899083 -0.2578125 7.5703125 C-8.39700188 14.2495576 -19.96684191 14.26105378 -30 15 C-30.74491699 15.05784668 -31.48983398 15.11569336 -32.25732422 15.17529297 C-51.11794243 16.56155869 -70.1021542 16.09505223 -89 16 C-89 15.34 -89 14.68 -89 14 C-87.73220703 13.98018066 -86.46441406 13.96036133 -85.15820312 13.93994141 C-56.89536768 13.64693818 -56.89536768 13.64693818 -28.6875 12.0625 C-27.35332031 11.95059326 -27.35332031 11.95059326 -25.9921875 11.83642578 C-17.65514697 11.03390357 -8.84581086 10.01032623 -2.1875 4.5 C-0.77369287 2.88926769 -0.77369287 2.88926769 0 0 Z " fill="#9E9C98" transform="translate(187,166)"/>
<path d="M0 0 C0.66 0 1.32 0 2 0 C2.85071324 3.30827898 3.67727949 6.62215869 4.5 9.9375 C4.85771484 11.32678711 4.85771484 11.32678711 5.22265625 12.74414062 C6.67695025 18.66519477 7.25008789 23.90410772 7 30 C4.69 30.33 2.38 30.66 0 31 C-3.65557777 20.71868751 -1.87342417 10.52128393 0 0 Z " fill="#BDBDBC" transform="translate(60,82)"/>
<path d="M0 0 C0 2.64 0 5.28 0 8 C-0.99 7.67 -1.98 7.34 -3 7 C-3 6.34 -3 5.68 -3 5 C-6.3 5.66 -9.6 6.32 -13 7 C-13.66 8.98 -14.32 10.96 -15 13 C-15.66 13 -16.32 13 -17 13 C-17.94903425 11.70235223 -18.87318851 10.38646018 -19.78515625 9.0625 C-22.1441323 6.28824142 -23.44172681 5.13995353 -27.00732422 4.24609375 C-30.50456999 3.99023486 -33.93155741 3.9426196 -37.4375 4 C-38.64599609 3.98839844 -39.85449219 3.97679687 -41.09960938 3.96484375 C-44.06813821 3.94137712 -47.03186707 3.95414536 -50 4 C-50 3.67 -50 3.34 -50 3 C-48.35185303 2.91697632 -48.35185303 2.91697632 -46.67041016 2.83227539 C-42.55146695 2.62413321 -38.43269517 2.41274903 -34.31396484 2.20043945 C-32.53926966 2.10940052 -30.76453054 2.01921346 -28.98974609 1.92993164 C-19.39419326 1.44664409 -9.56951131 0 0 0 Z " fill="#464645" transform="translate(208,150)"/>
<path d="M0 0 C0.33 0.66 0.66 1.32 1 2 C2.65 2 4.3 2 6 2 C5.484375 2.350625 4.96875 2.70125 4.4375 3.0625 C2.61719831 5.07690982 2.61719831 5.07690982 3.25 8.5625 C3.81719909 11.83962509 3.81719909 11.83962509 5 14 C4.34 14 3.68 14 3 14 C3.33 14.99 3.66 15.98 4 17 C4.068991 19.06145107 4.08467727 21.12501401 4.0625 23.1875 C4.05347656 24.27417969 4.04445312 25.36085937 4.03515625 26.48046875 C4.02355469 27.31191406 4.01195312 28.14335937 4 29 C4.99 29.33 5.98 29.66 7 30 C6.67 30.99 6.34 31.98 6 33 C6.05849813 35.4211443 6.05849813 35.4211443 6.375 38 C6.46523437 38.86625 6.55546875 39.7325 6.6484375 40.625 C6.95063832 43.14175286 6.95063832 43.14175286 8 46 C8.20282709 48.05925841 8.36444598 50.12272177 8.5 52.1875 C8.85022515 57.15736166 9.32265238 62.06503876 10 67 C9.01 67.495 9.01 67.495 8 68 C4.85097383 52.80518443 2.28021303 37.77848699 0.875 22.3125 C0.78718262 21.36205811 0.69936523 20.41161621 0.60888672 19.43237305 C0.05229967 12.94054412 -0.0997666 6.51412539 0 0 Z " fill="#9D9894" transform="translate(214,226)"/>
<path d="M0 0 C5.75 1.875 5.75 1.875 8 3 C8 3.66 8 4.32 8 5 C10.97 5.495 10.97 5.495 14 6 C14 6.66 14 7.32 14 8 C16.86724686 7.42655063 17.8614515 7.1385485 20 5 C20.99 5 21.98 5 23 5 C23.33 3.68 23.66 2.36 24 1 C24.33 1 24.66 1 25 1 C25.33 4.96 25.66 8.92 26 13 C15.84823571 13.73092703 9.28115958 13.54698734 1 7 C1.66 5.68 2.32 4.36 3 3 C2.01 2.01 1.02 1.02 0 0 Z " fill="#8C8C89" transform="translate(189,288)"/>
<path d="M0 0 C0.8353125 0.37125 0.8353125 0.37125 1.6875 0.75 C0.86894531 1.49507813 0.05039063 2.24015625 -0.79296875 3.0078125 C-4.64436977 7.62949372 -3.85392353 12.90543364 -3.625 18.625 C-3.60244141 19.69492188 -3.57988281 20.76484375 -3.55664062 21.8671875 C-3.49795633 24.49624407 -3.4159118 27.12238582 -3.3125 29.75 C1.70285052 29.42039784 1.70285052 29.42039784 5.6875 26.75 C6.6775 27.08 7.6675 27.41 8.6875 27.75 C7.6875 29.75 7.6875 29.75 5.0625 30.875 C1.46939212 31.80654649 -1.61665624 31.89783375 -5.3125 31.75 C-9.10872725 23.49733207 -10.77835111 14.87992282 -8.625 5.875 C-6.53656053 2.49371704 -4.21193094 -0.45534389 0 0 Z " fill="#B0B0AE" transform="translate(82.3125,81.25)"/>
<path d="M0 0 C0.66 0 1.32 0 2 0 C5.8637138 19.82453152 5.8637138 19.82453152 5 27 C4.67 27.33 4.34 27.66 4 28 C1.66055264 27.71269945 -0.6739143 27.38063221 -3 27 C-4.27637486 20.85019385 -3.59572091 16.67811366 -1.76953125 10.69921875 C-0.75242128 7.13158935 -0.3478671 3.68739122 0 0 Z " fill="#A8A6A2" transform="translate(191,203)"/>
<path d="M0 0 C0.66 0 1.32 0 2 0 C4.05050622 6.99369084 5.20623936 13.18954225 4.9765625 20.4765625 C5.00490261 23.52784805 5.63671052 26.09676931 6.48828125 29.0078125 C7.41300448 32.60788004 7.67497329 36.30495955 8 40 C8.99 39.505 8.99 39.505 10 39 C10.90041311 47.02332397 11.11547323 54.92970447 11 63 C10.67 63 10.34 63 10 63 C9.67 59.7 9.34 56.4 9 53 C8.34 53 7.68 53 7 53 C6.80083984 51.51886719 6.80083984 51.51886719 6.59765625 50.0078125 C6.42105469 48.72648437 6.24445313 47.44515625 6.0625 46.125 C5.80146484 44.21074219 5.80146484 44.21074219 5.53515625 42.2578125 C5.18566773 39.12440546 5.18566773 39.12440546 4 37 C3.72067554 35.1736056 3.48887508 33.33983394 3.28125 31.50390625 C3.15363281 30.38693359 3.02601563 29.26996094 2.89453125 28.11914062 C2.76433594 26.94544922 2.63414062 25.77175781 2.5 24.5625 C2.36980469 23.42361328 2.23960937 22.28472656 2.10546875 21.11132812 C1.31056146 14.08161766 0.60647061 7.04843711 0 0 Z " fill="#948D87" transform="translate(197,169)"/>
<path d="M0 0 C1.54932976 6.39098526 2.46611786 12.57734295 3 19.125 C3.55047796 25.45049214 4.19778061 31.71841509 5.125 38 C6.07233873 44.69798087 6.20502347 51.2456156 6 58 C4.07361489 55.11042233 3.67892822 54.08300863 3.25390625 50.80859375 C3.14022705 49.95837646 3.02654785 49.10815918 2.90942383 48.23217773 C2.79493896 47.30993408 2.6804541 46.38769043 2.5625 45.4375 C2.43834717 44.48109619 2.31419434 43.52469238 2.1862793 42.53930664 C1.77905221 39.36089288 1.38732126 36.18089921 1 33 C0.85884766 31.845 0.71769531 30.69 0.57226562 29.5 C0.1457637 25.97991168 -0.27312872 22.45903591 -0.6875 18.9375 C-0.81890381 17.82624756 -0.95030762 16.71499512 -1.08569336 15.57006836 C-1.26563843 14.00204468 -1.26563843 14.00204468 -1.44921875 12.40234375 C-1.55580811 11.47929443 -1.66239746 10.55624512 -1.7722168 9.60522461 C-1.99520526 7.05483885 -2.04073192 4.55860035 -2 2 C-4.31 2 -6.62 2 -9 2 C-9 1.67 -9 1.34 -9 1 C-1.125 0 -1.125 0 0 0 Z " fill="#9E9994" transform="translate(208,167)"/>
<path d="M0 0 C0.33 0 0.66 0 1 0 C1.33 1.65 1.66 3.3 2 5 C3.65 3.35 5.3 1.7 7 0 C11.69072165 1.44329897 11.69072165 1.44329897 12.9375 3.6875 C13.02770497 7.02508384 12.02993993 9.84959551 11 13 C9.329375 13.12375 9.329375 13.12375 7.625 13.25 C3.94246056 13.57873787 3.94246056 13.57873787 2.5625 16.0625 C2.376875 16.701875 2.19125 17.34125 2 18 C2 15.69 2 13.38 2 11 C1.34 11 0.68 11 0 11 C0 7.37 0 3.74 0 0 Z " fill="#706F70" transform="translate(77,157)"/>
<path d="M0 0 C9.37877608 -0.1598655 18.65190221 0.33566818 28 1 C28 1.33 28 1.66 28 2 C27.113125 2.226875 26.22625 2.45375 25.3125 2.6875 C20.42687083 4.62331533 17.87280273 7.6907959 15 12 C14.34 12 13.68 12 13 12 C11.00902154 9.01353231 10.05875074 6.40312738 9 3 C5.7 2.67 2.4 2.34 -1 2 C-0.67 1.34 -0.34 0.68 0 0 Z " fill="#3E3E3E" transform="translate(80,152)"/>
<path d="M0 0 C0.33 0 0.66 0 1 0 C1 4.29 1 8.58 1 13 C-2.63 13 -6.26 13 -10 13 C-11.23076923 6.6 -11.23076923 6.6 -10.0625 3.5625 C-9.711875 3.046875 -9.36125 2.53125 -9 2 C-3.375 1.75 -3.375 1.75 0 4 C0 2.68 0 1.36 0 0 Z " fill="#727172" transform="translate(208,154)"/>
<path d="M0 0 C2.29633824 3.44450737 2.54016485 5.93812283 3 10 C2.34 10 1.68 10 1 10 C1.0825 11.010625 1.165 12.02125 1.25 13.0625 C1.2906763 18.74701285 -0.52295918 24.01830001 -2.125 29.4140625 C-3.13179935 32.92495066 -3.13179935 32.92495066 -3 36.3359375 C-3 37.21507812 -3 38.09421875 -3 39 C-3.66 39.66 -4.32 40.32 -5 41 C-6.14298792 33.7078155 -5.71775084 27.6154268 -4.125 20.4375 C-3.74920544 18.66608219 -3.37677534 16.8939471 -3.0078125 15.12109375 C-2.83024414 14.27144043 -2.65267578 13.42178711 -2.46972656 12.54638672 C-2.00042434 10.00230035 -1.68920399 7.48344032 -1.4296875 4.91015625 C-1 1 -1 1 0 0 Z " fill="#91908D" transform="translate(190,193)"/>
<path d="M0 0 C0.66 0 1.32 0 2 0 C11.43284564 26.37533539 11.43284564 26.37533539 11 39 C10.67 39 10.34 39 10 39 C9.505 41.475 9.505 41.475 9 44 C8.67 44 8.34 44 8 44 C7.85304687 42.34677734 7.85304687 42.34677734 7.703125 40.66015625 C6.66234085 29.81745003 4.68028401 19.54537972 2 9 C1.31217208 6.00412729 0.65523973 3.00318208 0 0 Z " fill="#DFDEDE" transform="translate(223,53)"/>
<path d="M0 0 C0.66 0.33 1.32 0.66 2 1 C1.38815979 4.96048531 0.75831618 8.91789679 0.125 12.875 C-0.04902344 14.00292969 -0.22304687 15.13085938 -0.40234375 16.29296875 C-0.57636719 17.36933594 -0.75039062 18.44570312 -0.9296875 19.5546875 C-1.08679199 20.54968262 -1.24389648 21.54467773 -1.40576172 22.56982422 C-2 25 -2 25 -4 27 C-6 25 -6 25 -6.10693359 23.01635742 C-5.88104279 20.40432972 -5.64334123 17.79555624 -5.375 15.1875 C-5.30410156 14.28451172 -5.23320313 13.38152344 -5.16015625 12.45117188 C-4.63861934 7.15406935 -3.9746962 3.86924507 0 0 Z " fill="#69645F" transform="translate(87,217)"/>
<path d="M0 0 C0.66 0.33 1.32 0.66 2 1 C1.690625 2.18722656 1.38125 3.37445313 1.0625 4.59765625 C-0.39192914 11.14386767 -0.63178196 17.75843397 -1 24.4375 C-2.03607621 43.17321139 -2.03607621 43.17321139 -4 49 C-4.99 49.495 -4.99 49.495 -6 50 C-6.02712066 48.56260487 -6.04645067 47.12506137 -6.0625 45.6875 C-6.07410156 44.88699219 -6.08570312 44.08648437 -6.09765625 43.26171875 C-6 41 -6 41 -5 38 C-4.52474735 34.5549064 -4.24771726 31.08847095 -3.9375 27.625 C-3.845896 26.63653076 -3.75429199 25.64806152 -3.65991211 24.62963867 C-3.09255844 18.15248341 -2.86982013 11.86062938 -3.22265625 5.36328125 C-3 3 -3 3 -1.49609375 1.16796875 C-0.75552734 0.58982422 -0.75552734 0.58982422 0 0 Z " fill="#AAA6A1" transform="translate(81,170)"/>
<path d="M0 0 C2 2 2 2 2.1171875 5.01953125 C1.46602069 15.21764376 -0.12663541 24.84331945 -5 34 C-4.66515603 25.42106667 -4.00424057 17.02373998 -2.5 8.5625 C-2.36940186 7.82330322 -2.23880371 7.08410645 -2.10424805 6.32250977 C-1.13809846 1.13809846 -1.13809846 1.13809846 0 0 Z " fill="#949493" transform="translate(92,221)"/>
<path d="M0 0 C3.90887939 6.77539094 3.11016928 14.43504253 3 22 C3.66 22 4.32 22 5 22 C5 27.28 5 32.56 5 38 C2.91818761 34.87728142 2.51649116 33.19407387 1.9296875 29.5546875 C1.75566406 28.47703125 1.58164063 27.399375 1.40234375 26.2890625 C1.14130859 24.59910156 1.14130859 24.59910156 0.875 22.875 C0.69324219 21.7715625 0.51148438 20.668125 0.32421875 19.53125 C-0.66324346 13.27979751 -1.30266553 7.32965738 -1 1 C-0.67 0.67 -0.34 0.34 0 0 Z " fill="#65605C" transform="translate(196,210)"/>
<path d="M0 0 C1.32 0.33 2.64 0.66 4 1 C3.01 1.495 3.01 1.495 2 2 C2.62648438 2.04898438 3.25296875 2.09796875 3.8984375 2.1484375 C5.12433594 2.26058594 5.12433594 2.26058594 6.375 2.375 C7.59316406 2.47941406 7.59316406 2.47941406 8.8359375 2.5859375 C11 3 11 3 13 5 C13.60608097 7.05814996 14.01174169 9.12047457 14.4375 11.22265625 C14.7159375 12.10244141 14.7159375 12.10244141 15 13 C15.66 13.33 16.32 13.66 17 14 C15.68 14.33 14.36 14.66 13 15 C12.5875 13.865625 12.175 12.73125 11.75 11.5625 C10.38277902 8.04620317 10.38277902 8.04620317 8.1875 6.75 C4.54745325 7.16600534 2.63611197 9.54362294 0 12 C0 8.04 0 4.08 0 0 Z " fill="#5A5A5B" transform="translate(78,151)"/>
<path d="M0 0 C0.33 0.99 0.66 1.98 1 3 C5.455 2.505 5.455 2.505 10 2 C10.0625 4.25 10.0625 4.25 9 7 C6.80235287 8.24955682 4.59768155 9.13505533 2.2265625 10.0078125 C-0.09756804 11.04347769 -1.27345582 12.17336631 -3 14 C-5.1875 14.6875 -5.1875 14.6875 -7 15 C-6.67 13.68 -6.34 12.36 -6 11 C-4.02 11.495 -4.02 11.495 -2 12 C-1.34 8.04 -0.68 4.08 0 0 Z " fill="#686765" transform="translate(86,252)"/>
<path d="M0 0 C0.66 0 1.32 0 2 0 C1.71221756 1.52157311 1.41953999 3.04222053 1.125 4.5625 C0.96257813 5.40941406 0.80015625 6.25632812 0.6328125 7.12890625 C0 10 0 10 -1 13.21875 C-2.20734719 17.78403158 -2.68973088 22.2458697 -3.125 26.9375 C-3.21136719 27.81212891 -3.29773437 28.68675781 -3.38671875 29.58789062 C-3.59689697 31.72470254 -3.79925518 33.86228122 -4 36 C-4.33 36 -4.66 36 -5 36 C-5.144375 35.2575 -5.28875 34.515 -5.4375 33.75 C-5.9101821 31.13673728 -5.9101821 31.13673728 -6.609375 29.23046875 C-8.19107202 20.19897874 -2.78857765 8.52144033 0 0 Z " fill="#DCDCDB" transform="translate(60,57)"/>
<path d="M0 0 C2.36186995 3.69158413 2.20529451 6.88282225 2.125 11.1875 C2.10695312 12.43917969 2.08890625 13.69085938 2.0703125 14.98046875 C2.04710937 15.97691406 2.02390625 16.97335938 2 18 C1.96073333 19.19173179 1.96073333 19.19173179 2.5 21.0625 C3.36313794 26.13343539 3.95614404 30.56578394 1 35 C0.95101562 34.2265625 0.90203125 33.453125 0.8515625 32.65625 C0.36406467 25.59756854 0.36406467 25.59756854 -1.0625 18.6875 C-2.01123487 14.95580949 -2.23466439 11.83285178 -2 8 C-1.67 7.67 -1.34 7.34 -1 7 C-0.63239269 4.67182036 -0.29758419 2.3381615 0 0 Z " fill="#A9A49D" transform="translate(203,177)"/>
<path d="M0 0 C0.33 0 0.66 0 1 0 C1.68664745 15.6593765 -0.39843994 30.57572405 -3 46 C-3.33 46 -3.66 46 -4 46 C-4.10484043 38.84838506 -3.70412978 31.81425383 -3.125 24.6875 C-3.04636719 23.63626953 -2.96773438 22.58503906 -2.88671875 21.50195312 C-2.30759734 14.25402592 -1.30617394 7.15190335 0 0 Z " fill="#84817D" transform="translate(69,255)"/>
<path d="M0 0 C0.33 0 0.66 0 1 0 C1 2.31 1 4.62 1 7 C1.99 7.33 2.98 7.66 4 8 C3.67 8.99 3.34 9.98 3 11 C3.05849813 13.4211443 3.05849813 13.4211443 3.375 16 C3.46523437 16.86625 3.55546875 17.7325 3.6484375 18.625 C3.95063832 21.14175286 3.95063832 21.14175286 5 24 C5.20282709 26.05925841 5.36444598 28.12272177 5.5 30.1875 C5.85022515 35.15736166 6.32265238 40.06503876 7 45 C6.01 45.495 6.01 45.495 5 46 C3.39262093 39.40907325 2.49160504 33.00526315 1.9375 26.25 C1.78236108 24.42166863 1.62488497 22.59353377 1.46484375 20.765625 C1.399021 19.96930664 1.33319824 19.17298828 1.26538086 18.35253906 C0.98452744 15.86283938 0.49157036 13.45558766 0 11 C-0.06533435 9.06348981 -0.08584303 7.12497139 -0.0625 5.1875 C-0.05347656 4.21167969 -0.04445312 3.23585937 -0.03515625 2.23046875 C-0.02355469 1.49441406 -0.01195312 0.75835937 0 0 Z " fill="#928E89" transform="translate(217,248)"/>
<path d="M0 0 C0.33 0 0.66 0 1 0 C0.85761163 2.04190981 0.71092972 4.08352045 0.5625 6.125 C0.48128906 7.26195312 0.40007812 8.39890625 0.31640625 9.5703125 C0.02269035 12.7540478 -0.43124313 15.85510907 -1 19 C-1.99 19 -2.98 19 -4 19 C-4.68884385 6.10331231 -4.68884385 6.10331231 -2.0625 2.1875 C-1.381875 1.465625 -0.70125 0.74375 0 0 Z " fill="#ADA7A1" transform="translate(72,282)"/>
<path d="M0 0 C0.33 0 0.66 0 1 0 C1.33 3.96 1.66 7.92 2 12 C-1.375 11.75 -1.375 11.75 -5 11 C-6.4375 8.9375 -6.4375 8.9375 -7 7 C-5.6875 5.5 -5.6875 5.5 -4 4 C-3.01 4 -2.02 4 -1 4 C-0.67 2.68 -0.34 1.36 0 0 Z " fill="#ACAAA8" transform="translate(213,289)"/>
<path d="M0 0 C16.83 0.33 33.66 0.66 51 1 C49.68 1.99 48.36 2.98 47 4 C46.01 3.67 45.02 3.34 44 3 C42.54293083 2.88650152 41.08155041 2.82398525 39.62036133 2.79467773 C38.29933159 2.7647599 38.29933159 2.7647599 36.95161438 2.73423767 C36.00465195 2.71752518 35.05768951 2.70081268 34.08203125 2.68359375 C33.10965012 2.66281265 32.13726898 2.64203156 31.13542175 2.62062073 C28.02785335 2.55521252 24.92020015 2.49628071 21.8125 2.4375 C19.70637142 2.39430649 17.60025144 2.35069193 15.49414062 2.30664062 C10.32951409 2.19954001 5.16480222 2.09824781 0 2 C0 1.34 0 0.68 0 0 Z " fill="#707070" transform="translate(126,253)"/>
<path d="M0 0 C0.33 0 0.66 0 1 0 C1.38178283 11.43227487 0.21086752 22.64650681 -1 34 C-1.33 34 -1.66 34 -2 34 C-3.61903179 22.21813012 -2.06801483 11.6135974 0 0 Z " fill="#8F8C8A" transform="translate(72,230)"/>
<path d="M0 0 C0.99 0.495 0.99 0.495 2 1 C2 7.93 2 14.86 2 22 C8.63333333 21.76666667 8.63333333 21.76666667 11 19 C11.99 19.33 12.98 19.66 14 20 C13 22 13 22 10.375 23.125 C7 24 7 24 0 24 C0 16.08 0 8.16 0 0 Z " fill="#A4A4A2" transform="translate(77,89)"/>
<path d="M0 0 C0 0.66 0 1.32 0 2 C2.31 2 4.62 2 7 2 C7 2.66 7 3.32 7 4 C-0.26 4 -7.52 4 -15 4 C-15 3.34 -15 2.68 -15 2 C-13.06302033 1.66365624 -11.12539514 1.33102835 -9.1875 1 C-7.56908203 0.7215625 -7.56908203 0.7215625 -5.91796875 0.4375 C-3 0 -3 0 0 0 Z " fill="#A9A8A6" transform="translate(168,297)"/>
<path d="M0 0 C0.33 0 0.66 0 1 0 C0.88581333 2.58422459 0.75907638 5.16679513 0.625 7.75 C0.5940625 8.47960937 0.563125 9.20921875 0.53125 9.9609375 C0.3251506 13.73942656 0.08487157 16.77946668 -2 20 C-3.65 19.67 -5.3 19.34 -7 19 C-7 18.34 -7 17.68 -7 17 C-5.68 17 -4.36 17 -3 17 C-2.95101562 16.19175781 -2.90203125 15.38351562 -2.8515625 14.55078125 C-2.77679688 13.48214844 -2.70203125 12.41351563 -2.625 11.3125 C-2.55539063 10.25675781 -2.48578125 9.20101562 -2.4140625 8.11328125 C-2.01239911 5.09322731 -1.25930981 2.75921946 0 0 Z " fill="#4A4745" transform="translate(86,244)"/>
<path d="M0 0 C0.33 0 0.66 0 1 0 C3.3464626 6.57200296 3.43588724 13.00730516 3.625 19.9375 C3.66367188 21.09830078 3.70234375 22.25910156 3.7421875 23.45507812 C3.83595387 26.30323169 3.92165917 29.15138738 4 32 C1.62153543 28.43230314 1.59895904 25.63492669 1.4375 21.5 C1.22246357 16.17516841 1.22246357 16.17516841 0 11 C-0.87528688 6.97368035 -1.05747978 3.99492361 0 0 Z " fill="#96938E" transform="translate(212,269)"/>
<path d="M0 0 C0.33 0 0.66 0 1 0 C1.90041311 8.02332397 2.11547323 15.92970447 2 24 C1.67 24 1.34 24 1 24 C0.67 20.7 0.34 17.4 0 14 C-0.66 14 -1.32 14 -2 14 C-2.05437607 12.41705218 -2.09296271 10.83355744 -2.125 9.25 C-2.14820313 8.36828125 -2.17140625 7.4865625 -2.1953125 6.578125 C-1.99139502 3.8864142 -1.36551721 2.30095026 0 0 Z " fill="#9D9892" transform="translate(206,208)"/>
<path d="M0 0 C0 2.61053771 -0.17324487 5.07496531 -0.4375 7.66796875 C-0.52773437 8.56064453 -0.61796875 9.45332031 -0.7109375 10.37304688 C-0.80632812 11.30181641 -0.90171875 12.23058594 -1 13.1875 C-1.09539062 14.12787109 -1.19078125 15.06824219 -1.2890625 16.03710938 C-1.52470744 18.35821206 -1.76173814 20.67916473 -2 23 C-2.33 23 -2.66 23 -3 23 C-4.41606997 16.27366762 -5.49779193 8.21829676 -2 2 C-1.34 1.34 -0.68 0.68 0 0 Z " fill="#BBBBB9" transform="translate(77,83)"/>
<path d="M0 0 C3.02095137 3.02095137 2.73165386 6.67467603 3.125 10.75 C3.21136719 11.54921875 3.29773438 12.3484375 3.38671875 13.171875 C3.83175933 17.46686979 4.09764252 21.67583113 4 26 C-0.39266432 17.71299882 -0.25606838 9.20423555 0 0 Z " fill="#847F7A" transform="translate(205,222)"/>
<path d="M0 0 C0.33 0 0.66 0 1 0 C1 4.29 1 8.58 1 13 C-0.98 13 -2.96 13 -5 13 C-5 12.34 -5 11.68 -5 11 C-4.34 11 -3.68 11 -3 11 C-3.33 8.03 -3.66 5.06 -4 2 C-2.68 2.66 -1.36 3.32 0 4 C0 2.68 0 1.36 0 0 Z " fill="#696969" transform="translate(208,154)"/>
<path d="M0 0 C2.29633824 3.44450737 2.54016485 5.93812283 3 10 C2.34 10 1.68 10 1 10 C1.04125 11.175625 1.0825 12.35125 1.125 13.5625 C1.13983635 17.72409674 0.31170778 21.06487667 -1 25 C-1.33 25 -1.66 25 -2 25 C-2.125 18.375 -2.125 18.375 -1 15 C-0.95530204 12.62542065 -0.96099089 10.24967962 -1 7.875 C-1.03748646 5.58363995 -1.04687851 3.29118714 -1 1 C-0.67 0.67 -0.34 0.34 0 0 Z " fill="#989793" transform="translate(190,193)"/>
<path d="M0 0 C1.58246707 -0.08153933 3.16616273 -0.13943557 4.75 -0.1875 C6.07257813 -0.23970703 6.07257813 -0.23970703 7.421875 -0.29296875 C10.47610949 0.05410335 11.80564299 0.88254802 14 3 C14 3.66 14 4.32 14 5 C8.34605369 5.34615998 4.96993194 4.43425238 0 2 C0 1.34 0 0.68 0 0 Z " fill="#70706F" transform="translate(182,254)"/>
<path d="M0 0 C0.66 0.33 1.32 0.66 2 1 C1.88617347 2.95901454 1.75858875 4.9172338 1.625 6.875 C1.55539063 7.96554688 1.48578125 9.05609375 1.4140625 10.1796875 C1 13 1 13 -1 15 C-1.46006346 17.20250992 -1.46006346 17.20250992 -1.625 19.625 C-1.69976562 20.44226563 -1.77453125 21.25953125 -1.8515625 22.1015625 C-1.92503906 23.04128906 -1.92503906 23.04128906 -2 24 C-2.33 24 -2.66 24 -3 24 C-3.45636453 15.5657073 -2.17423358 8.14043404 0 0 Z " fill="#AAA59E" transform="translate(87,170)"/>
<path d="M0 0 C2.97 0 5.94 0 9 0 C9.125 2.875 9.125 2.875 9 6 C8.34 6.66 7.68 7.32 7 8 C1.125 3.375 1.125 3.375 0 0 Z " fill="#A7A7A6" transform="translate(56,292)"/>
<path d="M0 0 C1.32 0.33 2.64 0.66 4 1 C3.01 1.495 3.01 1.495 2 2 C2.62648438 2.04898438 3.25296875 2.09796875 3.8984375 2.1484375 C5.12433594 2.26058594 5.12433594 2.26058594 6.375 2.375 C7.59316406 2.47941406 7.59316406 2.47941406 8.8359375 2.5859375 C11 3 11 3 13 5 C13.60608097 7.05814996 14.01174169 9.12047457 14.4375 11.22265625 C14.7159375 12.10244141 14.7159375 12.10244141 15 13 C15.66 13.33 16.32 13.66 17 14 C15.68 14.33 14.36 14.66 13 15 C12.01 11.7 11.02 8.4 10 5 C6.7 5 3.4 5 0 5 C0 3.35 0 1.7 0 0 Z " fill="#4E4E4F" transform="translate(78,151)"/>
<path d="M0 0 C0.33 0 0.66 0 1 0 C1.02694851 1.95825873 1.04637218 3.91662226 1.0625 5.875 C1.07410156 6.96554687 1.08570312 8.05609375 1.09765625 9.1796875 C1 12 1 12 0 14 C-0.22950319 16.204364 -0.41075933 18.41392173 -0.5625 20.625 C-0.64628906 21.81351562 -0.73007813 23.00203125 -0.81640625 24.2265625 C-0.87699219 25.14179688 -0.93757813 26.05703125 -1 27 C-1.66 27 -2.32 27 -3 27 C-2.56408185 17.85719039 -1.9577539 8.97145478 0 0 Z " fill="#9C9893" transform="translate(69,274)"/>
<path d="M0 0 C0.66 0 1.32 0 2 0 C2.53251766 1.91345327 3.05059483 3.8309295 3.5625 5.75 C3.85253906 6.81734375 4.14257812 7.8846875 4.44140625 8.984375 C4.97098494 11.84335927 4.98370862 13.31597383 4 16 C0.18211975 11.18615099 0.29932075 5.89352231 0 0 Z " fill="#99948E" transform="translate(197,169)"/>
<path d="M0 0 C0.99 0.66 1.98 1.32 3 2 C3.36328125 3.875 3.36328125 3.875 3.3125 6 C3.30863281 6.70125 3.30476563 7.4025 3.30078125 8.125 C3 10 3 10 1 12 C0.01 11.67 -0.98 11.34 -2 11 C-1.34 11 -0.68 11 0 11 C0 7.37 0 3.74 0 0 Z M-4 12 C-3.34 12 -2.68 12 -2 12 C-2 12.66 -2 13.32 -2 14 C-2.99 13.67 -3.98 13.34 -5 13 C-4.67 12.67 -4.34 12.34 -4 12 Z " fill="#DDDDDC" transform="translate(67,101)"/>
<path d="M0 0 C0.66 0 1.32 0 2 0 C3.86783046 5.48675196 4.2358396 10.22192976 4 16 C3.34 15.67 2.68 15.34 2 15 C1.3671875 12.3828125 1.3671875 12.3828125 0.875 9.125 C0.70742187 8.05507813 0.53984375 6.98515625 0.3671875 5.8828125 C0 3 0 3 0 0 Z " fill="#A5A09A" transform="translate(209,249)"/>
<path d="M0 0 C0.33 0 0.66 0 1 0 C1.33 4.29 1.66 8.58 2 13 C3.65 13 5.3 13 7 13 C6.67 13.66 6.34 14.32 6 15 C3.69 14.67 1.38 14.34 -1 14 C-1.18451025 4.58997722 -1.18451025 4.58997722 0 0 Z " fill="#8C8A87" transform="translate(77,263)"/>
<path d="M0 0 C1.09570312 0.00902344 2.19140625 0.01804688 3.3203125 0.02734375 C4.16335937 0.03894531 5.00640625 0.05054688 5.875 0.0625 C4.225 1.3825 2.575 2.7025 0.875 4.0625 C0.545 3.4025 0.215 2.7425 -0.125 2.0625 C-0.455 2.3925 -0.785 2.7225 -1.125 3.0625 C-3.45797433 3.10342937 -5.79205225 3.10491723 -8.125 3.0625 C-8.125 2.4025 -8.125 1.7425 -8.125 1.0625 C-5.36047967 -0.31976016 -3.0788637 -0.03275387 0 0 Z " fill="#5C5C5A" transform="translate(120.125,251.9375)"/>
<path d="M0 0 C1.27617187 0.02320313 2.55234375 0.04640625 3.8671875 0.0703125 C5.78917969 0.09738281 5.78917969 0.09738281 7.75 0.125 C9.23113281 0.15980469 9.23113281 0.15980469 10.7421875 0.1953125 C10.7421875 1.1853125 10.7421875 2.1753125 10.7421875 3.1953125 C5.4621875 2.8653125 0.1821875 2.5353125 -5.2578125 2.1953125 C-3.2578125 0.1953125 -3.2578125 0.1953125 0 0 Z " fill="#737372" transform="translate(165.2578125,227.8046875)"/>
<path d="M0 0 C-0.33 2.31 -0.66 4.62 -1 7 C-2.65 7.33 -4.3 7.66 -6 8 C-6 7.01 -6 6.02 -6 5 C-5.34 5 -4.68 5 -4 5 C-3.87625 4.360625 -3.7525 3.72125 -3.625 3.0625 C-3.41875 2.381875 -3.2125 1.70125 -3 1 C-1 0 -1 0 0 0 Z " fill="#57534E" transform="translate(209,255)"/>
<path d="M0 0 C2.97 0.495 2.97 0.495 6 1 C6 2.32 6 3.64 6 5 C4.02 5 2.04 5 0 5 C0 3.35 0 1.7 0 0 Z " fill="#94918D" transform="translate(222,296)"/>
<path d="M0 0 C0.33 0 0.66 0 1 0 C0.67 3.3 0.34 6.6 0 10 C0.66 10 1.32 10 2 10 C2 10.99 2 11.98 2 13 C1.34 13 0.68 13 0 13 C-1.6875 10.4375 -1.6875 10.4375 -3 7 C-2.36490421 4.34847509 -1.31240999 2.43038886 0 0 Z " fill="#545253" transform="translate(195,156)"/>
<path d="M0 0 C0 0.99 0 1.98 0 3 C-2.31 3.66 -4.62 4.32 -7 5 C-7 3.68 -7 2.36 -7 1 C-4 0 -4 0 0 0 Z " fill="#5B5B5A" transform="translate(96,254)"/>
<path d="M0 0 C0.99 0.66 1.98 1.32 3 2 C2.67 3.32 2.34 4.64 2 6 C0.68 5.67 -0.64 5.34 -2 5 C-2.33 3.68 -2.66 2.36 -3 1 C-2.01 0.67 -1.02 0.34 0 0 Z " fill="#AFAFB0" transform="translate(3,226)"/>
<path d="M0 0 C5.75 1.875 5.75 1.875 8 3 C8 3.66 8 4.32 8 5 C6.02 5 4.04 5 2 5 C2.33 4.34 2.66 3.68 3 3 C2.01 2.01 1.02 1.02 0 0 Z " fill="#939391" transform="translate(189,288)"/>
<path d="M0 0 C0.33 0 0.66 0 1 0 C1 1.98 1 3.96 1 6 C-0.98 6.33 -2.96 6.66 -5 7 C-4.67 6.01 -4.34 5.02 -4 4 C-3.01 4 -2.02 4 -1 4 C-0.67 2.68 -0.34 1.36 0 0 Z " fill="#A9A6A3" transform="translate(213,289)"/>
<path d="M0 0 C2.125 0.375 2.125 0.375 4 1 C2.35830472 3.02054804 0.69088222 5.02043058 -1 7 C-1.33 7 -1.66 7 -2 7 C-2.125 4.625 -2.125 4.625 -2 2 C-1.34 1.34 -0.68 0.68 0 0 Z " fill="#A8A7A5" transform="translate(80,81)"/>
<path d="M0 0 C-0.66 1.65 -1.32 3.3 -2 5 C-3.65 4.67 -5.3 4.34 -7 4 C-6.01 3.67 -5.02 3.34 -4 3 C-4 2.34 -4 1.68 -4 1 C-2 0 -2 0 0 0 Z " fill="#918F8B" transform="translate(210,263)"/>
<path d="M0 0 C0.66 1.32 1.32 2.64 2 4 C0.68 4.99 -0.64 5.98 -2 7 C-2.125 4.625 -2.125 4.625 -2 2 C-1.34 1.34 -0.68 0.68 0 0 Z " fill="#373636" transform="translate(96,156)"/>
</svg>
